<svg role="img" viewBox="0 0 160 160" xmlns="http://www.w3.org/2000/svg" id="Ejs--Streamline-Simple-Icons" height="160" width="160">
  <desc>
    Ejs Streamline Icon: https://streamlinehq.com
  </desc>
  <title>EJS</title>
  <path d="m55.27333333333334 37.973333333333336 -8.386666666666667 -10.533333333333335 11.12 -10.333333333333334 8.386666666666667 10.533333333333335 -11.12 10.333333333333334zm15.6 13.653333333333334 1.3666666666666667 -10.333333333333334 -36.08 -0.2 -1.3599999999999999 10.333333333333334 26.3 0.14666666666666667L52 119.01333333333334l-5.593333333333334 5.133333333333334 -2.7 -0.02666666666666667c2.566666666666667 2.686666666666667 5.3533333333333335 5.4 8.24 8.093333333333334l9.186666666666666 -8.433333333333334 9.72 -72.15333333333334h0.02666666666666667zm-45.04666666666667 48.36s19.5 -3.12 23.6 2.5333333333333337c0 0 -11.706666666666667 -19.5 -27.893333333333334 -19.5 0 -0.49333333333333335 -0.6533333333333334 -9.02 34.306666666666665 -17.393333333333334l1.3733333333333333 -10.200000000000001c-55.64 7.386666666666668 -95.24666666666667 28.813333333333336 1.7666666666666668 87.46666666666667 0 0 -37.833333333333336 -31.400000000000002 -33.153333333333336 -42.906666666666666zM86.66666666666667 41.486666666666665 74.77333333333333 52.400000000000006l-3.506666666666667 26.913333333333334 8.773333333333333 10.92 37.833333333333336 0.3866666666666667 3.706666666666667 4.68 -2.5333333333333337 17.553333333333335 -4.753333333333333 4.566666666666667 -0.12 0.11333333333333334h14.620000000000001l3.706666666666667 -26.913333333333334 -8.966666666666667 -10.92 -37.64 -0.3866666666666667 -3.706666666666667 -4.68 2.34 -17.553333333333335 4.873333333333333 -4.68 33.54666666666667 0.3866666666666667 3.706666666666667 4.486666666666667 -1.1733333333333333 8.193333333333335h10.333333333333334l1.7600000000000002 -12.68 -8.78 -11.113333333333333 -42.12 -0.2zm19.213333333333335 79.38666666666667 3.6333333333333337 -3.486666666666667 -28.7 -0.23333333333333336 -6.433333333333334 -7.8 -8.386666666666667 7.8 8.973333333333334 11.113333333333333 42.12 0.2 8.133333333333333 -7.593333333333334h-19.34zM87.53333333333335 59.766666666666666a687.7333333333333 687.7333333333333 0 0 1 30.826666666666664 -3.693333333333334l-27.633333333333333 -0.32 -3.046666666666667 2.9333333333333336 -0.14666666666666667 1.08zm53.50666666666667 -7.706666666666666 -0.16666666666666669 1.1933333333333334 -0.12 0.8800000000000001c6.133333333333334 -0.46666666666666673 12.466666666666669 -0.9266666666666667 19.246666666666666 -1.3333333333333335 0 0 -7.42 -0.4466666666666667 -18.96 -0.7333333333333334zM12.76 122.61333333333333l9.36 11.893333333333334 17.733333333333334 0.13333333333333333c-8.613333333333333 -5.833333333333334 -15.953333333333333 -11.386666666666667 -21.973333333333333 -16.66l-5.12 4.633333333333333z" fill="#ffffff" stroke-width="6.6667"></path>
</svg>